<svg xmlns="http://www.w3.org/2000/svg" xmlns:xlink="http://www.w3.org/1999/xlink" width="500" zoomAndPan="magnify" viewBox="0 140 375 100" height="133" preserveAspectRatio="xMidYMid meet" version="1.0"><defs><g/><clipPath id="ce7c675eb0"><path d="M 0.761719 26 L 53 26 L 53 94 L 0.761719 94 Z M 0.761719 26 " clip-rule="nonzero"/></clipPath><clipPath id="ac292acaa5"><rect x="0" width="216" y="0" height="103"/></clipPath><clipPath id="f04720c994"><path d="M 0.359375 1 L 6 1 L 6 5 L 0.359375 5 Z M 0.359375 1 " clip-rule="nonzero"/></clipPath><clipPath id="7a293649ee"><path d="M 155 1 L 159.960938 1 L 159.960938 5 L 155 5 Z M 155 1 " clip-rule="nonzero"/></clipPath><clipPath id="6ee0677261"><rect x="0" width="160" y="0" height="6"/></clipPath><clipPath id="646b01ad57"><rect x="0" width="106" y="0" height="126"/></clipPath></defs><g transform="matrix(1, 0, 0, 1, 35, 133)"><g clip-path="url(#ac292acaa5)"><g clip-path="url(#ce7c675eb0)"><g fill="#ffffff" fill-opacity="1"><g transform="translate(0.906403, 93.907475)"><g><path d="M 38.765625 -12.46875 L 51.734375 -12.46875 L 51.734375 -0.765625 C 51.734375 -0.253906 51.421875 0 50.796875 0 L 39.78125 0 C 36.382812 0 32.847656 -0.253906 29.171875 -0.765625 C 25.492188 -1.273438 21.929688 -2.222656 18.484375 -3.609375 C 15.035156 -4.992188 11.910156 -6.941406 9.109375 -9.453125 C 6.316406 -11.972656 4.097656 -15.222656 2.453125 -19.203125 C 0.816406 -23.191406 0 -28.097656 0 -33.921875 C 0 -39.921875 0.832031 -44.953125 2.5 -49.015625 C 4.164062 -53.085938 6.398438 -56.367188 9.203125 -58.859375 C 12.003906 -61.347656 15.140625 -63.242188 18.609375 -64.546875 C 22.085938 -65.847656 25.648438 -66.722656 29.296875 -67.171875 C 32.941406 -67.617188 36.4375 -67.84375 39.78125 -67.84375 L 50.796875 -67.84375 C 51.421875 -67.84375 51.734375 -67.59375 51.734375 -67.09375 L 51.734375 -40.453125 L 38.765625 -40.453125 L 38.765625 -55.46875 C 33.835938 -55.75 29.4375 -55.195312 25.5625 -53.8125 C 21.695312 -52.425781 18.644531 -50.109375 16.40625 -46.859375 C 14.175781 -43.609375 13.0625 -39.296875 13.0625 -33.921875 C 13.0625 -29.742188 13.664062 -26.296875 14.875 -23.578125 C 16.09375 -20.859375 17.707031 -18.734375 19.71875 -17.203125 C 21.726562 -15.679688 23.890625 -14.566406 26.203125 -13.859375 C 28.523438 -13.160156 30.785156 -12.738281 32.984375 -12.59375 C 35.191406 -12.445312 37.117188 -12.40625 38.765625 -12.46875 Z M 38.765625 -12.46875 "/></g></g></g></g><g fill="#ffffff" fill-opacity="1"><g transform="translate(55.266365, 93.907475)"><g><path d="M 39.015625 -33.75 C 39.015625 -32 38.40625 -30.5 37.1875 -29.25 C 35.96875 -28.007812 34.457031 -27.390625 32.65625 -27.390625 C 30.90625 -27.390625 29.40625 -28.007812 28.15625 -29.25 C 26.914062 -30.5 26.296875 -32 26.296875 -33.75 C 26.296875 -35.5625 26.914062 -37.085938 28.15625 -38.328125 C 29.40625 -39.578125 30.90625 -40.203125 32.65625 -40.203125 C 34.457031 -40.203125 35.96875 -39.578125 37.1875 -38.328125 C 38.40625 -37.085938 39.015625 -35.5625 39.015625 -33.75 Z M 65.3125 -34.015625 C 65.3125 -29.773438 64.628906 -25.628906 63.265625 -21.578125 C 61.910156 -17.535156 59.875 -13.890625 57.15625 -10.640625 C 54.445312 -7.390625 51.054688 -4.800781 46.984375 -2.875 C 42.910156 -0.957031 38.160156 0 32.734375 0 C 27.253906 0 22.460938 -0.957031 18.359375 -2.875 C 14.265625 -4.800781 10.859375 -7.390625 8.140625 -10.640625 C 5.429688 -13.890625 3.394531 -17.535156 2.03125 -21.578125 C 0.675781 -25.628906 0 -29.773438 0 -34.015625 C 0 -38.253906 0.675781 -42.378906 2.03125 -46.390625 C 3.394531 -50.410156 5.429688 -54.03125 8.140625 -57.25 C 10.859375 -60.46875 14.265625 -63.035156 18.359375 -64.953125 C 22.460938 -66.878906 27.253906 -67.84375 32.734375 -67.84375 C 38.160156 -67.84375 42.910156 -66.878906 46.984375 -64.953125 C 51.054688 -63.035156 54.445312 -60.46875 57.15625 -57.25 C 59.875 -54.03125 61.910156 -50.410156 63.265625 -46.390625 C 64.628906 -42.378906 65.3125 -38.253906 65.3125 -34.015625 Z M 52.578125 -33.75 C 52.578125 -36.519531 52.15625 -39.21875 51.3125 -41.84375 C 50.46875 -44.476562 49.222656 -46.851562 47.578125 -48.96875 C 45.941406 -51.09375 43.878906 -52.773438 41.390625 -54.015625 C 38.898438 -55.265625 36.015625 -55.890625 32.734375 -55.890625 C 29.398438 -55.890625 26.488281 -55.265625 24 -54.015625 C 21.507812 -52.773438 19.429688 -51.09375 17.765625 -48.96875 C 16.097656 -46.851562 14.851562 -44.476562 14.03125 -41.84375 C 13.21875 -39.21875 12.8125 -36.519531 12.8125 -33.75 C 12.8125 -31.039062 13.21875 -28.382812 14.03125 -25.78125 C 14.851562 -23.175781 16.097656 -20.828125 17.765625 -18.734375 C 19.429688 -16.648438 21.507812 -14.984375 24 -13.734375 C 26.488281 -12.492188 29.398438 -11.875 32.734375 -11.875 C 36.015625 -11.875 38.898438 -12.492188 41.390625 -13.734375 C 43.878906 -14.984375 45.941406 -16.648438 47.578125 -18.734375 C 49.222656 -20.828125 50.46875 -23.175781 51.3125 -25.78125 C 52.15625 -28.382812 52.578125 -31.039062 52.578125 -33.75 Z M 52.578125 -33.75 "/></g></g></g><g fill="#ffffff" fill-opacity="1"><g transform="translate(123.788741, 93.907475)"><g><path d="M 46.3125 -1.109375 C 46.425781 -0.816406 46.410156 -0.554688 46.265625 -0.328125 C 46.117188 -0.109375 45.878906 0 45.546875 0 L 33.421875 0 C 32.960938 0 32.675781 -0.171875 32.5625 -0.515625 L 20.1875 -27.390625 L 12.890625 -27.390625 L 12.890625 -0.765625 C 12.890625 -0.253906 12.578125 0 11.953125 0 L 0.84375 0 C 0.28125 0 0 -0.253906 0 -0.765625 L 0 -39.859375 L 22.8125 -39.859375 C 23.488281 -39.859375 24.390625 -39.914062 25.515625 -40.03125 C 26.648438 -40.144531 27.769531 -40.457031 28.875 -40.96875 C 29.976562 -41.476562 30.910156 -42.253906 31.671875 -43.296875 C 32.441406 -44.335938 32.828125 -45.796875 32.828125 -47.671875 C 32.828125 -49.535156 32.414062 -51.003906 31.59375 -52.078125 C 30.769531 -53.148438 29.765625 -53.925781 28.578125 -54.40625 C 27.390625 -54.882812 26.257812 -55.191406 25.1875 -55.328125 C 24.113281 -55.472656 23.320312 -55.546875 22.8125 -55.546875 L 0 -55.546875 L 0 -67.09375 C 0 -67.59375 0.28125 -67.84375 0.84375 -67.84375 L 22.8125 -67.84375 C 23.601562 -67.84375 24.875 -67.769531 26.625 -67.625 C 28.382812 -67.488281 30.351562 -67.109375 32.53125 -66.484375 C 34.707031 -65.867188 36.796875 -64.851562 38.796875 -63.4375 C 40.804688 -62.019531 42.460938 -60.039062 43.765625 -57.5 C 45.066406 -54.957031 45.71875 -51.679688 45.71875 -47.671875 C 45.71875 -44.210938 45.148438 -41.28125 44.015625 -38.875 C 42.890625 -36.476562 41.378906 -34.515625 39.484375 -32.984375 C 37.585938 -31.460938 35.507812 -30.28125 33.25 -29.4375 C 35.394531 -24.625 37.582031 -19.867188 39.8125 -15.171875 C 42.050781 -10.484375 44.21875 -5.796875 46.3125 -1.109375 Z M 46.3125 -1.109375 "/></g></g></g><g fill="#ffffff" fill-opacity="1"><g transform="translate(172.551571, 93.907475)"><g><path d="M 32.234375 -12.640625 L 32.234375 0 L 0.9375 0 C 0.3125 0 0 -0.253906 0 -0.765625 L 0 -67.09375 C 0 -67.59375 0.3125 -67.84375 0.9375 -67.84375 L 32.234375 -67.84375 L 32.234375 -55.546875 L 12.96875 -55.546875 L 12.96875 -40.203125 L 39.609375 -40.203125 C 40.234375 -40.203125 40.546875 -39.945312 40.546875 -39.4375 L 40.546875 -28.671875 C 40.546875 -28.160156 40.234375 -27.90625 39.609375 -27.90625 L 12.96875 -27.90625 L 12.96875 -12.640625 Z M 32.234375 -12.640625 "/></g></g></g></g></g><g transform="matrix(1, 0, 0, 1, 232, 137)"><g clip-path="url(#646b01ad57)"><g fill="#ffffff" fill-opacity="1"><g transform="translate(0.758279, 98.316694)"><g><path d="M 63.484375 0 C 64.097656 -0.0820312 64.539062 -0.429688 64.8125 -1.046875 C 65.070312 -1.578125 65.023438 -2.148438 64.671875 -2.765625 L 39.515625 -39.125 L 23.703125 -20.421875 C 22.921875 -19.191406 22.285156 -17.628906 21.796875 -15.734375 C 21.316406 -13.847656 21.226562 -11.875 21.53125 -9.8125 C 21.84375 -7.75 22.65625 -5.835938 23.96875 -4.078125 C 25.289062 -2.328125 27.3125 -0.96875 30.03125 0 L 6.328125 0 L 39.125 -39.515625 L 2.640625 -92.203125 L 40.703125 -92.203125 C 39.992188 -92.023438 39.554688 -91.675781 39.390625 -91.15625 C 39.117188 -90.539062 39.160156 -89.96875 39.515625 -89.4375 L 62.703125 -55.984375 L 76 -71.78125 C 76.789062 -73.007812 77.425781 -74.566406 77.90625 -76.453125 C 78.394531 -78.347656 78.503906 -80.328125 78.234375 -82.390625 C 77.972656 -84.453125 77.179688 -86.382812 75.859375 -88.1875 C 74.546875 -89.988281 72.484375 -91.328125 69.671875 -92.203125 L 93.515625 -92.203125 L 62.96875 -55.578125 L 101.5625 0 Z M 63.484375 0 "/></g></g></g></g></g></svg>








